<svg xmlns="http://www.w3.org/2000/svg">
    <symbol id="logo" viewBox="0 0 176 46" fill="none">
        <path d="M43.4043 2.5957V43.4043H2.5957V2.5957H43.4043Z" stroke="currentColor" stroke-width="5.19149"/>
        <path d="M61.8164 24.924H63.6568C63.6213 25.725 63.459 26.4069 63.1701 26.9697C62.8811 27.5274 62.4654 27.9532 61.9229 28.2473C61.3855 28.5413 60.7289 28.6883 59.9533 28.6883C59.3652 28.6883 58.8379 28.5819 58.3715 28.3689C57.9101 28.156 57.5172 27.8493 57.1928 27.4488C56.8683 27.0432 56.6199 26.5489 56.4475 25.9658C56.2802 25.3828 56.1965 24.7212 56.1965 23.981V22.019C56.1965 21.2788 56.2827 20.6172 56.4551 20.0342C56.6325 19.4511 56.886 18.9568 57.2156 18.5512C57.5451 18.1457 57.9456 17.8389 58.4171 17.6311C58.8937 17.4181 59.4311 17.3117 60.0293 17.3117C60.7949 17.3117 61.4387 17.4587 61.9609 17.7527C62.4831 18.0468 62.8862 18.4777 63.1701 19.0456C63.454 19.6134 63.6187 20.3054 63.6644 21.1216H61.824C61.7987 20.569 61.7226 20.128 61.5959 19.7984C61.4742 19.4638 61.2866 19.223 61.0331 19.076C60.7847 18.9289 60.4501 18.8554 60.0293 18.8554C59.6795 18.8554 59.3778 18.9213 59.1244 19.0532C58.8759 19.185 58.6706 19.3827 58.5084 19.6463C58.3512 19.9049 58.2321 20.2319 58.1509 20.6273C58.0749 21.0177 58.0369 21.4765 58.0369 22.0038V23.981C58.0369 24.488 58.0698 24.9367 58.1357 25.3271C58.2016 25.7174 58.3081 26.0495 58.4551 26.3233C58.6022 26.592 58.7973 26.7973 59.0407 26.9393C59.284 27.0761 59.5882 27.1446 59.9533 27.1446C60.3893 27.1446 60.7366 27.0761 60.9951 26.9393C61.2587 26.8024 61.4539 26.5717 61.5807 26.2472C61.7074 25.9228 61.786 25.4817 61.8164 24.924Z" fill="currentColor"/>
        <path d="M71.4516 26.9925V28.5362H66.6454V26.9925H71.4516ZM67.1321 17.4638V28.5362H65.2842V17.4638H67.1321ZM70.8052 22.0722V23.5932H66.6454V22.0722H70.8052ZM71.406 17.4638V19.0151H66.6454V17.4638H71.406Z" fill="currentColor"/>
        <path d="M79.0031 17.4638V19.0151H74.6456V17.4638H79.0031ZM80.4404 17.4638V28.5362H78.6V17.4638H80.4404ZM74.2882 17.4638H76.1209L75.908 22.9772C75.8826 23.7833 75.8243 24.4931 75.7331 25.1065C75.6469 25.7149 75.5277 26.2371 75.3756 26.6731C75.2235 27.1091 75.0284 27.464 74.7901 27.7377C74.5569 28.0115 74.278 28.2143 73.9536 28.3461C73.6342 28.4729 73.2641 28.5362 72.8433 28.5362H72.387V26.9925L72.6532 26.9621C72.8661 26.9418 73.0511 26.8784 73.2083 26.7719C73.3705 26.6655 73.5049 26.5032 73.6113 26.2852C73.7229 26.0672 73.8141 25.7884 73.8851 25.4487C73.9561 25.104 74.0119 24.6857 74.0524 24.1939C74.093 23.7022 74.1209 23.1268 74.1361 22.4677L74.2882 17.4638Z" fill="currentColor"/>
        <path d="M84.3568 25.1674L88.2124 17.4638H89.9995V28.5362H88.1896V20.8783L84.3568 28.5362H82.5545V17.4638H84.3568V25.1674Z" fill="currentColor"/>
        <path d="M98.1518 17.4638V19.0151H94.0072V28.5362H92.1593V17.4638H98.1518Z" fill="currentColor"/>
        <path d="M105.901 26.9925V28.5362H101.095V26.9925H105.901ZM101.582 17.4638V28.5362H99.7336V17.4638H101.582ZM105.255 22.0722V23.5932H101.095V22.0722H105.255ZM105.855 17.4638V19.0151H101.095V17.4638H105.855Z" fill="currentColor"/>
        <path d="M111.087 24.4297H108.753V22.8859H111.087C111.473 22.8859 111.782 22.8048 112.015 22.6426C112.248 22.4804 112.418 22.2573 112.525 21.9734C112.636 21.6895 112.692 21.3675 112.692 21.0076C112.692 20.6628 112.636 20.3384 112.525 20.0342C112.418 19.73 112.248 19.4841 112.015 19.2965C111.782 19.1089 111.473 19.0151 111.087 19.0151H109.277V28.5362H107.43V17.4638H111.087C111.823 17.4638 112.446 17.6159 112.958 17.9201C113.475 18.2242 113.871 18.6425 114.145 19.1748C114.418 19.7021 114.555 20.3079 114.555 20.9924C114.555 21.7072 114.418 22.3207 114.145 22.8327C113.871 23.3448 113.475 23.7402 112.958 24.019C112.446 24.2928 111.823 24.4297 111.087 24.4297Z" fill="currentColor"/>
        <path d="M121.666 17.4638V28.5362H119.818V17.4638H121.666ZM127.194 17.4638L123.498 23.7985H121.141L120.867 22.095H122.464L124.943 17.4638H127.194ZM125.27 28.5362L122.517 23.4943L123.704 22.0038L127.483 28.5362H125.27Z" fill="currentColor"/>
        <path d="M132.358 18.9847L129.681 28.5362H127.749L131.263 17.4638H132.464L132.358 18.9847ZM134.495 28.5362L131.81 18.9847L131.681 17.4638H132.905L136.434 28.5362H134.495ZM134.54 24.4221V25.9735H129.384V24.4221H134.54Z" fill="currentColor"/>
        <path d="M138.328 17.4638H140.008L142.556 25.6997L145.096 17.4638H146.655L143.248 28.5362H141.856L138.328 17.4638ZM137.696 17.4638H139.248L139.499 24.5133V28.5362H137.696V17.4638ZM145.849 17.4638H147.408V28.5362H145.605V24.5133L145.849 17.4638Z" fill="currentColor"/>
        <path d="M155.651 26.9925V28.5362H150.845V26.9925H155.651ZM151.332 17.4638V28.5362H149.484V17.4638H151.332ZM155.005 22.0722V23.5932H150.845V22.0722H155.005ZM155.605 17.4638V19.0151H150.845V17.4638H155.605Z" fill="currentColor"/>
        <path d="M163.256 22.0722V23.6236H158.594V22.0722H163.256ZM159.028 17.4638V28.5362H157.18V17.4638H159.028ZM164.701 17.4638V28.5362H162.86V17.4638H164.701Z" fill="currentColor"/>
        <path d="M168.085 21.6844H170.381C171.096 21.6844 171.71 21.8263 172.222 22.1103C172.734 22.3942 173.124 22.7896 173.393 23.2966C173.667 23.8036 173.804 24.3967 173.804 25.0761C173.804 25.5881 173.725 26.0546 173.568 26.4754C173.416 26.8962 173.19 27.2612 172.891 27.5704C172.597 27.8797 172.24 28.118 171.819 28.2853C171.398 28.4526 170.919 28.5362 170.381 28.5362H166.769V17.4638H168.617V26.9925H170.381C170.746 26.9925 171.043 26.9038 171.271 26.7263C171.504 26.5438 171.677 26.3081 171.788 26.0191C171.905 25.725 171.963 25.4056 171.963 25.0609C171.963 24.7263 171.905 24.4221 171.788 24.1483C171.677 23.8695 171.504 23.6489 171.271 23.4867C171.043 23.3194 170.746 23.2358 170.381 23.2358H168.085V21.6844Z" fill="currentColor"/>
    </symbol>

    <symbol id="social-max" viewBox="0 0 24 24" fill="none">
        <path d="M11.7224 4.01129C6.95631 4.26119 3.81013 8.01197 4.00891 12.7417C4.09573 14.812 4.92511 16.5934 5.12161 18.5582C5.17187 19.0672 5.02564 19.6954 5.61056 19.9177C6.33027 20.1906 7.43383 19.732 8.03702 19.3125C8.24265 19.1726 8.43915 19.0099 8.58994 18.8081C9.2137 19.2231 9.80546 19.6243 10.548 19.8031C13.8176 20.5895 17.4002 18.7898 18.9927 15.8987C21.9858 10.4674 17.9394 3.68573 11.7224 4.01129ZM9.87172 15.3462C9.61354 15.5479 9.36449 15.8231 9.07889 15.9813C8.66534 16.2036 8.53739 15.9721 8.38203 15.6053C7.89308 14.4383 7.83367 12.4506 8.11927 11.2286C8.50312 9.5664 9.7849 8.10368 11.5465 7.94778C13.3286 7.78959 14.9828 8.69748 15.73 10.3367C17.3842 13.9843 13.1504 17.5861 9.87172 15.3485V15.3462Z" fill="currentColor"/>
    </symbol>

    <symbol id="social-vk" viewBox="0 0 24 24" fill="none">
        <path d="M5.125 5.125C4 6.25 4 8.06071 4 11.6786V12.3214C4 15.9393 4 17.75 5.125 18.875C6.25 20 8.06071 20 11.6786 20H12.3179C15.9393 20 17.75 20 18.8714 18.875C19.9929 17.75 20 15.9393 20 12.3214V11.6821C20 8.06071 20 6.25 18.875 5.12857C17.75 4.00714 15.9393 4 12.3214 4H11.6786C8.06071 4 6.25 4 5.125 5.125ZM6.7 8.86786H8.525C8.58571 11.9214 9.93214 13.2143 11 13.4821V8.86786H12.7214V11.5C13.775 11.3857 14.8821 10.1857 15.2536 8.86786H16.975C16.8357 9.55357 16.5536 10.2 16.15 10.7714C15.7464 11.3429 15.2321 11.825 14.6321 12.1857C15.3 12.5179 15.8893 12.9857 16.3607 13.5607C16.8321 14.1357 17.1786 14.8071 17.3714 15.525H15.4786C15.3036 14.9 14.95 14.3429 14.4571 13.9179C13.9643 13.4929 13.3607 13.225 12.7179 13.1464V15.525H12.5107C8.86429 15.525 6.78571 13.025 6.69643 8.86429L6.7 8.86786Z" fill="currentColor"/>
    </symbol>

    <symbol id="chevron-down" viewBox="0 0 24 24" fill="none">
        <path d="M6 9L12 15L18 9" stroke="currentColor" stroke-width="2" stroke-linecap="round" stroke-linejoin="round"/>
    </symbol>

    <symbol id="chevrons-left" viewBox="0 0 24 24" fill="none" >
        <path d="M11 17L6 12L11 7M18 17L13 12L18 7" stroke="currentColor" stroke-width="2" stroke-linecap="round" stroke-linejoin="round"/>
    </symbol>

    <symbol id="chevron-left" viewBox="0 0 24 24" fill="none" >
        <path d="M15 18L9 12L15 6" stroke="currentColor" stroke-width="2" stroke-linecap="round" stroke-linejoin="round"/>
    </symbol>

    <symbol id="chevrons-right" viewBox="0 0 24 24" fill="none" >
        <path d="M6 17L11 12L6 7M13 17L18 12L13 7" stroke="currentColor" stroke-width="2" stroke-linecap="round" stroke-linejoin="round"/>
    </symbol>

    <symbol id="chevron-right" viewBox="0 0 24 24" fill="none" >
        <path d="M9 18L15 12L9 6" stroke="currentColor" stroke-width="2" stroke-linecap="round" stroke-linejoin="round"/>
    </symbol>

    <symbol id="cart" viewBox="0 0 24 24" fill="none">
        <path d="M8 22C8.55228 22 9 21.5523 9 21C9 20.4477 8.55228 20 8 20C7.44772 20 7 20.4477 7 21C7 21.5523 7.44772 22 8 22Z" stroke="currentColor" stroke-width="2" stroke-linecap="round" stroke-linejoin="round"/>
        <path d="M19 22C19.5523 22 20 21.5523 20 21C20 20.4477 19.5523 20 19 20C18.4477 20 18 20.4477 18 21C18 21.5523 18.4477 22 19 22Z" stroke="currentColor" stroke-width="2" stroke-linecap="round" stroke-linejoin="round"/>
        <path d="M2.05005 2.05005H4.05005L6.71005 14.47C6.80763 14.9249 7.06072 15.3315 7.42576 15.6199C7.7908 15.9083 8.24495 16.0604 8.71005 16.05H18.49C18.9452 16.0493 19.3865 15.8933 19.7411 15.6079C20.0956 15.3224 20.3422 14.9246 20.4401 14.48L22.09 7.05005H5.12005" stroke="currentColor" stroke-width="2" stroke-linecap="round" stroke-linejoin="round"/>
    </symbol>
</svg>
